<svg width="512" height="512" viewBox="0 0 120 120" fill="none" xmlns="http://www.w3.org/2000/svg">
      <defs>
        <linearGradient id="gradient5" x1="0%" y1="0%" x2="100%" y2="100%">
          <stop offset="0%" stop-color="#0EA5E9" />
          <stop offset="100%" stop-color="#38BDF8" />
        </linearGradient>
        <linearGradient id="gradient5b" x1="0%" y1="0%" x2="100%" y2="100%">
          <stop offset="0%" stop-color="#38BDF8" />
          <stop offset="50%" stop-color="#0EA5E9" />
          <stop offset="100%" stop-color="#1C3555" />
        </linearGradient>
      </defs>
      <circle cx="60" cy="60" r="45" stroke="url(#gradient5)" stroke-width="6" fill="none" opacity="0.3" />
      <path d="M 60 15 A 45 45 0 0 1 105 60" stroke="url(#gradient5)" stroke-width="8" fill="none" stroke-linecap="round" />
      <circle cx="60" cy="60" r="28" fill="url(#gradient5b)" opacity="0.85" />
      <circle cx="60" cy="60" r="12" fill="white" />
      <circle cx="60" cy="60" r="8" fill="#0EA5E9" />
      <path d="M 30 30 L 30 40 M 30 30 L 40 30" stroke="#0EA5E9" stroke-width="5" stroke-linecap="round" />
      <path d="M 90 30 L 90 40 M 90 30 L 80 30" stroke="#0EA5E9" stroke-width="5" stroke-linecap="round" />
      <path d="M 30 90 L 30 80 M 30 90 L 40 90" stroke="#38BDF8" stroke-width="5" stroke-linecap="round" />
      <path d="M 90 90 L 90 80 M 90 90 L 80 90" stroke="#38BDF8" stroke-width="5" stroke-linecap="round" />
    </svg>